<svg xmlns="http://www.w3.org/2000/svg" viewBox="0 0 17.5 20"><defs><clipPath id="a"><path d="M0 612h792V0H0v612z"/></clipPath><clipPath id="b"><path d="M0 612h792V0H0v612z"/></clipPath><clipPath id="c"><path d="M0 612h792V0H0v612z"/></clipPath><clipPath id="d"><path d="M0 612h792V0H0v612z"/></clipPath></defs><path d="M1.4 17.552v-1.38h.77v.148h-.573v.442h.48v.143h-.48v.502h.614v.145H1.4z" fill="#231f20"/><g clip-path="url(#a)" transform="matrix(1.25 0 0 -1.25 -487.5 392.095)"><path d="M392.927 299.414c-.173.056-.32.123-.436.2a.876.876 0 0 0-.107-.008.455.455 0 0 0-.36.162.614.614 0 0 0-.14.417c0 .176.047.318.14.422.094.106.22.158.376.158a.47.47 0 0 0 .374-.16.608.608 0 0 0 .14-.42c0-.255-.094-.43-.282-.527a1.66 1.66 0 0 1 .394-.12l-.1-.124zm-.533.31c.113 0 .2.04.262.12.06.082.092.197.092.344 0 .145-.03.256-.092.337a.304.304 0 0 1-.257.122.304.304 0 0 1-.26-.122.55.55 0 0 1-.09-.338.56.56 0 0 1 .09-.34.296.296 0 0 1 .254-.123M393.125 300.737h.157v-.696c0-.11.02-.19.06-.24.04-.05.106-.077.196-.077.087 0 .15.024.186.07.036.05.054.13.054.243v.7h.138v-.698c0-.15-.03-.26-.093-.33-.062-.067-.16-.102-.296-.102-.137 0-.24.036-.305.108-.065.07-.098.18-.098.328v.695z" fill="#231f20"/></g><path d="M6.143 17.552l-.15-.383H5.41l-.153.382h-.18l.545-1.38h.194l.54 1.38h-.213zm-.206-.528l-.235-.592-.236.592h.47zM6.554 17.552v-1.38h.197v1.235h.62v.145h-.816zM8.175 17.552v-1.38h.196v.582h.656v-.58h.197v1.378h-.197V16.9H8.37v.652h-.195z" fill="#231f20"/><g clip-path="url(#b)" transform="matrix(1.25 0 0 -1.25 -487.5 392.095)"><path d="M398.106 299.606a.473.473 0 0 0-.37.16.612.612 0 0 0-.14.42c0 .175.048.316.14.42.095.106.22.158.377.158.156 0 .28-.052.375-.157a.604.604 0 0 0 .14-.42c0-.178-.045-.32-.14-.424a.493.493 0 0 0-.383-.157m.002.117c.113 0 .2.04.263.122.06.08.09.197.09.344a.55.55 0 0 1-.09.336.304.304 0 0 1-.256.12.303.303 0 0 1-.258-.12.543.543 0 0 1-.093-.34c0-.143.03-.257.093-.34a.295.295 0 0 1 .252-.123M398.838 300.737h.157v-.696c0-.11.02-.19.062-.24.04-.05.105-.077.195-.077.088 0 .15.024.187.07.035.05.052.13.052.243v.7h.14v-.698c0-.15-.032-.26-.095-.33-.062-.067-.16-.102-.296-.102-.135 0-.238.036-.303.108-.066.07-.1.18-.1.328v.695zM400.12 299.606c-.073 0-.17.017-.283.05v.153a.774.774 0 0 1 .305-.087.23.23 0 0 1 .15.048.16.16 0 0 1 .056.13c0 .042-.012.08-.038.11a.44.44 0 0 1-.135.1l-.076.046a.722.722 0 0 0-.2.15.256.256 0 0 0-.057.166c0 .085.03.155.09.21.063.056.14.082.238.082a.9.9 0 0 0 .27-.042v-.142a.804.804 0 0 1-.26.067.202.202 0 0 1-.134-.043.13.13 0 0 1-.054-.108c0-.037.014-.07.04-.098a.638.638 0 0 1 .14-.102l.08-.044a.664.664 0 0 0 .2-.154.265.265 0 0 0 .057-.174.286.286 0 0 0-.108-.23.427.427 0 0 0-.28-.088" fill="#231f20"/></g><path d="M13.409 16.174h.193v1.38h-.194l-.002-1.38zM13.957 17.552v-1.38h.193l.694 1.066v-1.065h.168v1.38h-.193l-.694-1.066v1.065h-.17z" fill="#231f20"/><g clip-path="url(#c)" transform="matrix(1.25 0 0 -1.25 -487.5 392.095)"><path d="M403.123 299.664a1.312 1.312 0 0 0-.35-.057c-.175 0-.31.05-.404.15-.095.1-.142.242-.142.43 0 .182.048.324.143.425a.52.52 0 0 0 .4.153c.113 0 .23-.017.35-.05v-.145c-.15.052-.268.078-.35.078-.118 0-.21-.04-.276-.122a.527.527 0 0 1-.1-.34c0-.147.037-.26.106-.34.07-.082.17-.122.297-.122a.6.6 0 0 1 .17.027v.36h.156v-.446zM391.562 298a.55.55 0 0 0-.435.187c-.11.125-.164.29-.164.496 0 .206.055.37.165.495.11.124.258.186.442.186s.33-.062.44-.185c.112-.125.167-.29.167-.495 0-.21-.055-.377-.166-.5a.573.573 0 0 0-.448-.185m.003.138c.132 0 .235.048.308.143.072.097.11.232.11.406 0 .17-.038.302-.11.397a.36.36 0 0 1-.303.143.36.36 0 0 1-.303-.144c-.072-.095-.11-.228-.11-.398s.037-.303.11-.4a.352.352 0 0 1 .298-.146M392.435 298.032v1.3h.354c.155 0 .268-.028.336-.08.07-.054.103-.14.103-.262a.4.4 0 0 0-.14-.324c-.095-.08-.225-.117-.39-.117h-.082v-.518h-.183zm.183.656h.074a.39.39 0 0 1 .254.075c.06.05.09.122.09.213 0 .078-.024.134-.07.167-.048.034-.126.05-.235.05h-.112v-.505zM393.43 298.032v1.3h.353c.156 0 .27-.028.337-.08.07-.054.103-.14.103-.262a.4.4 0 0 0-.14-.324c-.094-.08-.224-.117-.39-.117h-.08v-.518h-.184zm.182.656h.074a.39.39 0 0 1 .254.075c.06.05.09.122.09.213 0 .078-.024.134-.07.167-.048.034-.126.05-.235.05h-.113v-.505zM394.945 298a.55.55 0 0 0-.435.187c-.11.125-.164.29-.164.496 0 .206.055.37.165.495.11.124.26.186.443.186.184 0 .33-.062.44-.185.112-.125.167-.29.167-.495 0-.21-.055-.377-.166-.5a.573.573 0 0 0-.45-.185m.004.138c.132 0 .235.048.308.143.072.097.11.232.11.406 0 .17-.038.302-.11.397a.36.36 0 0 1-.303.143.36.36 0 0 1-.303-.144c-.072-.095-.11-.228-.11-.398s.037-.303.11-.4a.352.352 0 0 1 .298-.146M395.82 298.032v1.3h.392a.44.44 0 0 0 .287-.084c.065-.055.098-.134.098-.238 0-.174-.087-.296-.262-.37l.433-.608h-.227l-.37.55h-.17v-.55h-.184zm.182.688h.06c.23 0 .347.09.347.272 0 .134-.098.2-.293.2h-.115v-.472z" fill="#231f20"/></g><path d="M9.08 19.555v-1.45h-.576v-.174h1.383v.174H9.31v1.45h-.23z" fill="#231f20"/><g clip-path="url(#d)" transform="matrix(1.25 0 0 -1.25 -487.5 392.095)"><path d="M398.082 299.33h.184v-.818c0-.13.023-.226.072-.285.05-.06.125-.088.23-.088.104 0 .176.025.22.082.042.055.065.15.065.283v.826h.16v-.822c0-.177-.035-.306-.11-.387-.07-.08-.187-.12-.346-.12-.162 0-.283.042-.36.125-.076.084-.115.213-.115.39v.816z" fill="#231f20"/></g><path d="M11.672 19.555V17.93h.226l.817 1.255V17.93h.197v1.625h-.224L11.87 18.3v1.255h-.198zM13.33 17.93h.232v1.625h-.23V17.93zM14.365 19.555v-1.45h-.576v-.174h1.38v.174h-.575v1.45h-.23zM15.752 19.555v-.678l-.544-.946h.264l.42.734.456-.733h.214l-.58.942v.683h-.23zM8.714 0L0 5.917v2.315h1.02v6.91h15.416v-7h1.053V5.83L8.713 0zM3.034 7.09l5.74-3.817 5.71 3.845v5.86H3.005l.03-5.888z" fill="#231f20"/><path d="M11.765 8.864h-6.04V6.43h6.04v2.434zM11.765 11.75h-6.04V9.317h6.04v2.433z" fill="#231f20"/></svg>