<svg xmlns="http://www.w3.org/2000/svg" viewBox="0 0 45.976 45.576"><path d="M45.388 32.988c-.1 0-.2.1-.2.1 0 6.3-.8 11.9-10.9 11.9h-4.3c-4.2 0-6.8-2.8-6.8-7.5v-14.6h3.2c2.4 0 4.3.7 5.7 1.9 1.3 1.2 2 2.9 2 5 0 .3.4.3.4 0v-14c0-.1-.1-.1-.2-.1s-.2.1-.2.1c0 4.3-2.9 6.8-7.6 6.8h-3.2v-14.7c0-2.4.6-4.2 1.9-5.5 1.2-1.2 2.8-1.8 5-1.8h4.3c3.6 0 6.4 1.1 8.3 3.2 1.7 1.9 2.5 4.4 2.5 7.4 0 .3.4.3.4 0V.488c0-.1-.1-.2-.2-.2h-45c-.1 0-.2.1-.2.2v10.8c0 .3.4.3.4 0 0-3 .9-5.6 2.5-7.4 1.9-2.1 4.7-3.2 8.3-3.2h4.3c4.1 0 6.7 2.7 6.8 7.2v14.7h-3.2c-4.8 0-7.6-2.6-7.6-6.8 0-.1-.1-.1-.2-.1s-.2.1-.2.1v14c0 .3.4.3.4 0 0-2 .7-3.8 2-5 1.3-1.2 3.3-1.9 5.7-1.9h3.2v14.6c-.1 4.7-2.6 7.5-6.8 7.5h-4.3c-10.1 0-10.9-5.6-10.9-11.9 0-.1-.1-.1-.2-.1s-.2.1-.2.1v12c0 .1.1.2.2.2h44.8c.1 0 .2-.1.2-.2v-11.9c.1-.1 0-.2-.1-.2" stroke-miterlimit="10" stroke="#fff" stroke-width=".576" fill="#fff"/></svg>