<svg xmlns="http://www.w3.org/2000/svg" id="Layer_1" data-name="Layer 1" viewBox="0 0 60.443 60.162"><defs id="defs72"><style id="style2">.cls-1{fill:none}</style><clipPath id="clip-path"><path class="cls-1" id="polygon4" d="M187 453.35h23.47v-5.39h-17.52v-7.63h15.33v-5.38h-15.33v-7.37h17.3v-5.39H187z" fill="none"/></clipPath><stop offset="1" id="stop13" stop-color="#fae9cc"/><clipPath id="clip-path-2"><path class="cls-1" d="M218.77 437.77v.09a15.58 15.58 0 0 0 15.84 16 16.17 16.17 0 0 0 12.61-5.5l.19-.2-3.85-3.89-.21.19c-2.55 2.38-4.87 3.85-8.58 3.85-5.59 0-9.8-4.53-9.8-10.54v-.09c0-6 4.21-10.5 9.8-10.5 3 0 5.59 1.15 8.37 3.72l.22.21 3.83-4.41-.2-.19a16.19 16.19 0 0 0-12.17-4.84 15.73 15.73 0 0 0-16.06 16.1" id="path16" fill="none"/></clipPath><clipPath id="clip-path-3"><path class="cls-1" id="polygon20" d="M262.99 434.9v-12.71h-5.95v31.16h5.95v-12.89H277v12.89h5.95v-31.16H277v12.71z" fill="none"/></clipPath><clipPath id="clip-path-4"><path class="cls-1" id="polygon24" d="M315.33 440.33v-5.38H300v-7.37h17.3v-5.39h-23.25v31.16h23.46v-5.39H300v-7.63z" fill="none"/></clipPath><clipPath id="clip-path-5"><path class="cls-1" id="polygon28" d="M328.56 422.19v31.16h22.03v-5.47h-16.07v-25.69z" fill="none"/></clipPath><clipPath id="clip-path-6"><path class="cls-1" d="M362.13 437.77v-.09c0-6 4.31-10.5 10-10.5s10.1 4.55 10.1 10.59v.09c0 6-4.31 10.45-10 10.45s-10.1-4.53-10.1-10.54m-6.21 0v.09c0 9.13 7 16 16.23 16a16 16 0 0 0 16.32-16.1v-.09c0-9.13-7-16-16.23-16a16 16 0 0 0-16.32 16.1" id="path32" fill="none"/></clipPath><clipPath id="clip-path-7"><path class="cls-1" id="polygon36" d="M418.69 442.78l-15.86-20.47-.08-.12h-5.41v31.16h5.86v-21.2l16.34 21.09.09.11h4.93v-31.16h-5.87z" fill="none"/></clipPath><clipPath id="clip-path-8"><path class="cls-1" d="M275.9 331a.34.34 0 0 0-.32.32v14.37a.24.24 0 1 0 .48 0 14.59 14.59 0 0 1 3.39-9.91c2.54-2.86 6.26-4.31 11-4.31h5.74c5.51 0 8.92 3.6 9.11 9.64v19.61h-4.28c-6.37 0-10.18-3.41-10.18-9.13a.24.24 0 0 0-.47 0v18.73a.24.24 0 1 0 .47 0 8.73 8.73 0 0 1 2.62-6.61 10.87 10.87 0 0 1 7.56-2.52h4.28v19.48c-.07 6.25-3.48 10-9.12 10h-5.67c-13.41 0-14.53-7.49-14.53-15.83a.24.24 0 0 0-.47 0v16a.29.29 0 0 0 .32.32h59.8a.29.29 0 0 0 .32-.32v-16a.24.24 0 0 0-.47 0c0 8.34-1.11 15.83-14.52 15.83h-5.68c-5.6 0-9-3.74-9.12-10v-19.44h4.28a10.87 10.87 0 0 1 7.56 2.52 8.73 8.73 0 0 1 2.62 6.61.24.24 0 1 0 .47 0v-18.73a.24.24 0 0 0-.47 0c0 5.72-3.81 9.13-10.18 9.13h-4.28v-19.6c0-3.18.85-5.63 2.52-7.29a9 9 0 0 1 6.61-2.36h5.72c4.79 0 8.5 1.45 11 4.31a14.6 14.6 0 0 1 3.39 9.91.24.24 0 1 0 .48 0v-14.38a.34.34 0 0 0-.32-.32z" id="path40" fill="none"/></clipPath><clipPath id="clip-path-9"><path class="cls-1" d="M258.48 469.5a2.67 2.67 0 0 0-1.13 2 3 3 0 0 0 .23 1.56 3.32 3.32 0 0 0 1 1.28 19.2 19.2 0 0 0 2.08 1.28 8 8 0 0 1 2.12 1.46 1.88 1.88 0 0 1 .44 1.51 2.12 2.12 0 0 1-.86 1.48 2.62 2.62 0 0 1-2.07.49 4.09 4.09 0 0 1-2.95-2l-.33.35a5.15 5.15 0 0 0 3.39 2.08h.6a3.82 3.82 0 0 0 2.25-.67 3.12 3.12 0 0 0 1.31-2.3 3.2 3.2 0 0 0-.23-1.7 3 3 0 0 0-1-1.23 21.11 21.11 0 0 0-2.14-1.29 8.71 8.71 0 0 1-2.12-1.5 1.75 1.75 0 0 1-.5-1.41 1.79 1.79 0 0 1 .65-1.18 2 2 0 0 1 1.64-.39 2.81 2.81 0 0 1 1.91 1 4.25 4.25 0 0 1 .35.44l.39-.3a3.71 3.71 0 0 0-1.29-1.13 4.36 4.36 0 0 0-1.41-.39h-.42a3.16 3.16 0 0 0-1.95.61" id="path44" fill="none"/></clipPath><clipPath id="clip-path-10"><path class="cls-1" id="polygon48" d="M270.4 471.86v9.11h7.38v-.42h-5.56v-5.74h3.67v-.42h-3.67v-5.12h5.59v-.41h-7.41z" fill="none"/></clipPath><clipPath id="clip-path-11"><path class="cls-1" d="M287 471.05l2.22 5.08h-4.39zm.51-2.19L282.29 481h.71l1.78-4.44h4.68l1 2.22 1 2.22h2l-5.4-12.1z" id="path52" fill="none"/></clipPath><clipPath id="clip-path-12"><path class="cls-1" d="M300.78 469.4h1a3.61 3.61 0 0 1 2.49.71 2.79 2.79 0 0 1 .76 2.19 2.83 2.83 0 0 1-.44 1.63 1.91 1.91 0 0 1-1.13.82 6.45 6.45 0 0 1-1.75.15h-.88zm-1.82-.54V481h1.82v-5.69h1.36a8.36 8.36 0 0 0 3-.32 2.89 2.89 0 0 0 1.32-1.11 3.21 3.21 0 0 0 .46-1.71 2.71 2.71 0 0 0-.67-1.87 3.71 3.71 0 0 0-1.73-1.06 11.37 11.37 0 0 0-3-.34z" id="path56" fill="none"/></clipPath><clipPath id="clip-path-13"><path class="cls-1" d="M314.59 479.12a8.16 8.16 0 0 1 0-8.41 3.4 3.4 0 0 1 3-1.41 3.76 3.76 0 0 1 3.23 1.45c.79 1 1 2.35 1 4.17 0 1.82-.19 3.26-1 4.2a3.65 3.65 0 0 1-3.07 1.41 3.53 3.53 0 0 1-3.12-1.41m-1.34-8.62a5.44 5.44 0 0 0-1.91 4.34 5.72 5.72 0 0 0 1.87 4.46 6.61 6.61 0 0 0 8.81 0 5.66 5.66 0 0 0 1.84-4.39 5.46 5.46 0 0 0-1.92-4.42 6.08 6.08 0 0 0-4.36-1.61 5.94 5.94 0 0 0-4.33 1.63" id="path60" fill="none"/></clipPath><clipPath id="clip-path-14"><path class="cls-1" id="polygon64" d="M341.27 469.27h3.71v11.7h1.84v-11.7h3.76v-.41h-9.3z" fill="none"/></clipPath><clipPath id="clip-path-15"><path class="cls-1" d="M330.87 469.37h.79c1.47 0 2.47.17 2.91.67a3.08 3.08 0 0 1 0 3.78c-.44.5-1.45.67-2.91.67h-.79zm-1.8-.5V481h1.8v-6H333l3.37 6h1.45l-3.46-6.16.42-.1a3.89 3.89 0 0 0 1.82-1 2.43 2.43 0 0 0 .68-1.68v-.2a2.43 2.43 0 0 0-.69-1.72 3.88 3.88 0 0 0-1.82-1 10.78 10.78 0 0 0-2.91-.29z" id="path68" fill="none"/></clipPath></defs><g clip-path="url(#clip-path-8)" id="g106" transform="translate(-275.508 -331)"><path transform="rotate(-57.9 305.774 361.1)" id="rect104" d="M264.25 319.52h83.06v83.15h-83.06z" fill="#c2b29d"/></g></svg>
